<svg xmlns="http://www.w3.org/2000/svg" viewBox="0 0 1200 400" preserveAspectRatio="xMidYMid slice" role="img" aria-label="Bannière ville néon"><defs><linearGradient id="sky" x1="0" y1="0" x2="0" y2="1"><stop offset="0" stop-color="#1a0b2e"/><stop offset="0.55" stop-color="#4a1466"/><stop offset="1" stop-color="#ff5f9e"/></linearGradient><linearGradient id="sun" x1="0" y1="0" x2="0" y2="1"><stop offset="0" stop-color="#ffd76a"/><stop offset="1" stop-color="#ff4f7e"/></linearGradient></defs><rect width="1200" height="400" fill="url(#sky)"/><circle cx="600" cy="250" r="150" fill="url(#sun)" opacity="0.9"/><rect x="450" y="180" width="300" height="7" fill="#1a0b2e" opacity="0.85"/><rect x="450" y="194" width="300" height="7" fill="#1a0b2e" opacity="0.85"/><rect x="450" y="208" width="300" height="7" fill="#1a0b2e" opacity="0.85"/><rect x="450" y="222" width="300" height="7" fill="#1a0b2e" opacity="0.85"/><rect x="450" y="236" width="300" height="7" fill="#1a0b2e" opacity="0.85"/><rect x="450" y="250" width="300" height="7" fill="#1a0b2e" opacity="0.85"/><g fill="#120820" opacity="0.92"><rect x="0" y="225" width="58" height="175"/><rect x="64" y="268" width="27" height="132"/><rect x="97" y="326" width="38" height="74"/><rect x="141" y="312" width="22" height="88"/><rect x="169" y="255" width="64" height="145"/><rect x="239" y="233" width="52" height="167"/><rect x="297" y="290" width="45" height="110"/><rect x="348" y="296" width="23" height="104"/><rect x="377" y="228" width="53" height="172"/><rect x="436" y="237" width="34" height="163"/><rect x="476" y="214" width="48" height="186"/><rect x="530" y="261" width="56" height="139"/><rect x="592" y="306" width="28" height="94"/><rect x="626" y="260" width="58" height="140"/><rect x="690" y="246" width="38" height="154"/><rect x="734" y="243" width="61" height="157"/><rect x="801" y="222" width="27" height="178"/><rect x="834" y="288" width="49" height="112"/><rect x="889" y="284" width="27" height="116"/><rect x="922" y="227" width="48" height="173"/><rect x="976" y="274" width="38" height="126"/><rect x="1020" y="234" width="28" height="166"/><rect x="1054" y="241" width="34" height="159"/><rect x="1094" y="229" width="62" height="171"/><rect x="1162" y="318" width="40" height="82"/></g><g stroke="#39e6ff" stroke-width="3" opacity="0.5"><line x1="60" y1="330" x2="60" y2="400"/><line x1="150" y1="330" x2="150" y2="400"/><line x1="240" y1="330" x2="240" y2="400"/><line x1="330" y1="330" x2="330" y2="400"/><line x1="420" y1="330" x2="420" y2="400"/><line x1="510" y1="330" x2="510" y2="400"/><line x1="600" y1="330" x2="600" y2="400"/><line x1="690" y1="330" x2="690" y2="400"/><line x1="780" y1="330" x2="780" y2="400"/><line x1="870" y1="330" x2="870" y2="400"/><line x1="960" y1="330" x2="960" y2="400"/><line x1="1050" y1="330" x2="1050" y2="400"/><line x1="1140" y1="330" x2="1140" y2="400"/></g><rect x="116" y="300" width="8" height="100" fill="#0c0518"/><path d="M120 300 q -40 -35 -64.0 -20" stroke="#0c0518" stroke-width="7" fill="none"/><path d="M120 300 q -15 -35 -24.0 -20" stroke="#0c0518" stroke-width="7" fill="none"/><path d="M120 300 q 15 -35 24.0 -20" stroke="#0c0518" stroke-width="7" fill="none"/><path d="M120 300 q 40 -35 64.0 -20" stroke="#0c0518" stroke-width="7" fill="none"/><rect x="1076" y="300" width="8" height="100" fill="#0c0518"/><path d="M1080 300 q -40 -35 -64.0 -20" stroke="#0c0518" stroke-width="7" fill="none"/><path d="M1080 300 q -15 -35 -24.0 -20" stroke="#0c0518" stroke-width="7" fill="none"/><path d="M1080 300 q 15 -35 24.0 -20" stroke="#0c0518" stroke-width="7" fill="none"/><path d="M1080 300 q 40 -35 64.0 -20" stroke="#0c0518" stroke-width="7" fill="none"/></svg>