<svg xmlns="http://www.w3.org/2000/svg" viewBox="0 0 400 220" width="400" height="220">
  <defs>
    <linearGradient id="bg" x1="0" y1="0" x2="1" y2="1"><stop offset="0%" stop-color="#0077b6"/><stop offset="100%" stop-color="#000d1a"/></linearGradient>
    <radialGradient id="sky" cx="50%" cy="30%" r="60%"><stop offset="0%" stop-color="#90caf9" stop-opacity=".3"/><stop offset="100%" stop-color="#0077b6" stop-opacity="0"/></radialGradient>
  </defs>
  <rect width="400" height="220" fill="url(#bg)"/>
  <ellipse cx="200" cy="80" rx="200" ry="100" fill="url(#sky)"/>
  <!-- Ground -->
  <rect x="0" y="155" width="400" height="20" fill="#1b5e20" opacity=".6"/>
  <!-- Road -->
  <rect x="0" y="150" width="400" height="12" fill="#424242"/>
  <rect x="0" y="154" width="400" height="4" fill="#616161"/>
  <rect x="50" y="155" width="30" height="3" fill="#ffd700" opacity=".7"/>
  <rect x="170" y="155" width="30" height="3" fill="#ffd700" opacity=".7"/>
  <rect x="290" y="155" width="30" height="3" fill="#ffd700" opacity=".7"/>
  <!-- House left -->
  <rect x="60" y="90" width="80" height="65" fill="#ef9a9a"/>
  <polygon points="55,92 105,55 155,92" fill="#c62828"/>
  <rect x="90" y="120" width="22" height="35" fill="#795548"/>
  <rect x="68" y="100" width="18" height="16" rx="2" fill="#81d4fa"/>
  <rect x="114" y="100" width="18" height="16" rx="2" fill="#81d4fa"/>
  <!-- House right -->
  <rect x="270" y="95" width="75" height="60" fill="#c5e1a5"/>
  <polygon points="265,97 307,62 350,97" fill="#558b2f"/>
  <rect x="295" y="120" width="20" height="35" fill="#795548"/>
  <rect x="274" y="104" width="16" height="14" rx="2" fill="#81d4fa"/>
  <rect x="315" y="104" width="16" height="14" rx="2" fill="#81d4fa"/>
  <!-- Car -->
  <rect x="160" y="130" width="70" height="28" rx="6" fill="#1565c0"/>
  <rect x="168" y="118" width="52" height="18" rx="6" fill="#1976d2"/>
  <circle cx="172" cy="158" r="8" fill="#333"/>
  <circle cx="218" cy="158" r="8" fill="#333"/>
  <circle cx="172" cy="158" r="4" fill="#666"/>
  <circle cx="218" cy="158" r="4" fill="#666"/>
  <!-- Sun -->
  <circle cx="320" cy="45" r="22" fill="#ffd700" opacity=".8"/>
  <circle cx="320" cy="45" r="16" fill="#ffeb3b"/>
  <!-- Name bar -->
  <rect x="0" y="175" width="400" height="45" fill="rgba(0,0,0,.65)"/>
  <text x="200" y="203" font-size="18" font-weight="bold" text-anchor="middle" font-family="Arial Black,Arial,sans-serif" fill="white" letter-spacing=".5">BROOKHAVEN RP</text>
</svg>